<svg width="20" height="20" viewBox="0 0 20 20" fill="none" xmlns="http://www.w3.org/2000/svg">
<mask id="mask0_11_10" style="mask-type:alpha" maskUnits="userSpaceOnUse" x="0" y="0" width="20" height="20">
<rect width="20" height="20" fill="#D9D9D9"/>
</mask>
<g mask="url(#mask0_11_10)">
<path d="M4.16667 17.5065C3.70833 17.5065 3.31597 17.3433 2.98958 17.0169C2.66319 16.6905 2.5 16.2982 2.5 15.8398V4.17318C2.5 3.71484 2.66319 3.32248 2.98958 2.99609C3.31597 2.6697 3.70833 2.50651 4.16667 2.50651H7.64583C7.79861 2.0204 8.09722 1.62109 8.54167 1.30859C8.98611 0.996094 9.47222 0.839844 10 0.839844C10.5556 0.839844 11.0521 0.996094 11.4896 1.30859C11.9271 1.62109 12.2222 2.0204 12.375 2.50651H15.8333C16.2917 2.50651 16.684 2.6697 17.0104 2.99609C17.3368 3.32248 17.5 3.71484 17.5 4.17318V15.8398C17.5 16.2982 17.3368 16.6905 17.0104 17.0169C16.684 17.3433 16.2917 17.5065 15.8333 17.5065H4.16667ZM4.16667 15.8398H15.8333V4.17318H14.1667V5.83984C14.1667 6.07595 14.0868 6.27387 13.9271 6.43359C13.7674 6.59332 13.5694 6.67318 13.3333 6.67318H6.66667C6.43056 6.67318 6.23264 6.59332 6.07292 6.43359C5.91319 6.27387 5.83333 6.07595 5.83333 5.83984V4.17318H4.16667V15.8398ZM10 4.17318C10.2361 4.17318 10.434 4.09332 10.5938 3.93359C10.7535 3.77387 10.8333 3.57595 10.8333 3.33984C10.8333 3.10373 10.7535 2.90582 10.5938 2.74609C10.434 2.58637 10.2361 2.50651 10 2.50651C9.76389 2.50651 9.56597 2.58637 9.40625 2.74609C9.24653 2.90582 9.16667 3.10373 9.16667 3.33984C9.16667 3.57595 9.24653 3.77387 9.40625 3.93359C9.56597 4.09332 9.76389 4.17318 10 4.17318Z" fill="#061280"/>
</g>
</svg>
