<svg xmlns="http://www.w3.org/2000/svg" width="24" height="24" fill="none"><path fill="#000" d="M11.957.283a2.4 2.4 0 0 1 .203.167c.402.37.517.975.673 1.477l.075.243a357.22 357.22 0 0 1 .387 1.246l.024.077a56.065 56.065 0 0 1 .374 1.252c.232.8.66 1.43 1.243 2.017l.06.06a4.94 4.94 0 0 0 .478.416c.42.33.881.608 1.363.838l.042.02.15.066.067.028c.3.12.613.2.924.285l.32.088a404.572 404.572 0 0 0 1.904.524 45.898 45.898 0 0 1 .34.093c.33.089.65.213.907.446l.052.045c.252.231.432.584.456.928.013.576-.095 1.021-.504 1.451-.337.32-.81.417-1.242.54l-.126.037-.267.077-.417.12-1.082.311a158.793 158.793 0 0 0-.572.164 6.426 6.426 0 0 0-1.203.47l-.058.03a6.609 6.609 0 0 0-1.033.7l-.035.03a5.409 5.409 0 0 0-.766.725l-.054.06c-.541.608-.819 1.3-1.036 2.071a111.917 111.917 0 0 1-.738 2.505l-.118.39-.049.162c-.167.56-.358 1.054-.889 1.356a1.764 1.764 0 0 1-1.25.147 2.673 2.673 0 0 1-.146-.055l-.08-.034a1.62 1.62 0 0 1-.858-.927c-.06-.167-.111-.337-.163-.507l-.048-.153c-.129-.417-.255-.834-.38-1.252l-.014-.049a77.541 77.541 0 0 1-.367-1.259l-.029-.102-.014-.05a42.195 42.195 0 0 1-.069-.244c-.28-1.01-.777-1.907-1.594-2.585l-.068-.06a7.085 7.085 0 0 0-1.382-.94l-.066-.036c-.457-.237-.955-.37-1.449-.51a95.495 95.495 0 0 1-.758-.216 353.671 353.671 0 0 1-1.265-.364l-.19-.055-.128-.037c-.544-.158-1.004-.365-1.287-.876-.196-.379-.27-.89-.14-1.302.115-.28.244-.496.462-.706l.039-.04c.187-.184.465-.279.71-.351l.068-.02c.323-.097.649-.186.974-.276l.359-.1a192.247 192.247 0 0 1 1.52-.418c1.326-.356 2.672-1.179 3.47-2.318l.035-.048c.352-.5.544-1.026.715-1.61l.129-.435.013-.045c.132-.443.269-.886.407-1.327a112.762 112.762 0 0 0 .254-.82l.065-.213c.241-.787.241-.787.511-1.085.014-.015.027-.03.04-.047.53-.574 1.493-.611 2.121-.19ZM10.918 1.48a.154.154 0 0 0-.038.045c-.054.091-.082.186-.113.288l-.023.075-.076.245-.055.175a201.287 201.287 0 0 0-.237.764c-.262.84-.262.84-.515 1.681a340.789 340.789 0 0 1-.12.41c-.107.37-.24.731-.422 1.072l-.036.066c-.1.186-.21.362-.333.533l-.033.045a5.12 5.12 0 0 1-.455.554 4.23 4.23 0 0 0-.146.161c-.142.165-.3.312-.465.452l-.062.054a8.237 8.237 0 0 1-1.84 1.207l-.125.061c-.502.244-1.04.385-1.577.533l-.309.086a550.755 550.755 0 0 1-1.797.5l-.188.052-.127.035-.077.021c-.032.01-.032.01-.066.018-.074.024-.095.03-.13.06a.161.161 0 0 0-.059.164.167.167 0 0 0 .074.113.536.536 0 0 0 .137.062l.063.02.07.022.075.024c.35.109.702.21 1.054.31l.38.11 1.077.308c.888.252.888.252 1.299.45l.066.031c.505.238.977.524 1.421.861l.044.034a9.823 9.823 0 0 1 .347.274c.196.16.375.339.555.518l.038.038c.164.162.316.328.458.51l.037.046c.54.686.869 1.422 1.104 2.257l.067.235.014.047.028.097.042.145c.147.516.301 1.03.456 1.542l.044.144a222.388 222.388 0 0 0 .36 1.188l.024.078.021.067c.015.036.027.06.046.083.027.031.066.048.107.05h.011a.15.15 0 0 0 .112-.054.304.304 0 0 0 .054-.11l.017-.053.018-.058.02-.063a37.887 37.887 0 0 0 .108-.355l.148-.482.024-.08a123.016 123.016 0 0 0 .676-2.29c.265-.93.265-.93.428-1.26l.027-.054a5.96 5.96 0 0 1 .767-1.167 6.906 6.906 0 0 1 .511-.563c.039-.037.077-.075.115-.114.15-.15.305-.29.473-.42l.052-.042a8.691 8.691 0 0 1 1.115-.76l.051-.029c.218-.126.439-.24.669-.342l.058-.026c.414-.178.852-.293 1.284-.416l.293-.084.05-.014.102-.03.155-.044a244.62 244.62 0 0 0 1.576-.456c.134-.04.268-.081.4-.126l.08-.026a.266.266 0 0 0 .096-.066c.03-.033.04-.08.033-.125a.202.202 0 0 0-.033-.085.134.134 0 0 0-.034-.035.346.346 0 0 0-.114-.052l-.06-.017-.065-.02a17.218 17.218 0 0 0-.07-.02c-.3-.088-.601-.17-.902-.254l-.323-.09c-.019-.004-.037-.01-.056-.015l-.11-.03-.222-.062-.165-.045-.21-.059a172.391 172.391 0 0 1-.74-.206 7.302 7.302 0 0 1-1.298-.47l-.072-.035a8.571 8.571 0 0 1-1.998-1.365l-.058-.052a5.185 5.185 0 0 1-.537-.543l-.031-.037c-.607-.717-.96-1.496-1.228-2.388l-.018-.062-.168-.56a105.843 105.843 0 0 0-.547-1.771 165.783 165.783 0 0 0-.227-.717l-.018-.059a.672.672 0 0 0-.081-.198c-.038-.057-.102-.107-.17-.09a.141.141 0 0 0-.052.025ZM20.576 16.596a.823.823 0 0 1 .07.058c.136.126.176.332.229.503l.026.083.047.153.042.136.042.135.009.027c.029.094.058.189.085.283l.008.026.034.118c.08.272.225.487.424.687l.02.02c.047.047.096.09.147.13l.016.013c.143.112.3.207.465.285l.014.007.051.022.023.01c.102.04.209.068.315.097l.11.03a132.066 132.066 0 0 0 .764.21.731.731 0 0 1 .327.168c.086.079.147.2.156.316.004.197-.033.349-.172.495-.115.109-.276.142-.424.184l-.043.013a108.358 108.358 0 0 0-.233.067l-.369.106-.14.04-.055.016c-.113.032-.222.07-.329.12l-.025.012a1.506 1.506 0 0 0-.056.028l-.02.01c-.124.068-.242.15-.352.239l-.012.01a1.848 1.848 0 0 0-.28.268c-.184.207-.278.443-.352.706l-.044.154-.01.035a34.118 34.118 0 0 1-.238.798l-.017.055c-.057.19-.122.36-.303.462a.601.601 0 0 1-.426.05.81.81 0 0 1-.05-.019l-.027-.011a.552.552 0 0 1-.293-.316c-.02-.057-.037-.115-.055-.173l-.016-.052a49.844 49.844 0 0 1-.245-.82l-.015-.053-.01-.035a10.07 10.07 0 0 1-.028-.1c-.095-.344-.265-.65-.543-.881l-.024-.02a2.41 2.41 0 0 0-.47-.321l-.023-.012c-.156-.081-.326-.126-.494-.174l-.098-.028-.16-.046a100.432 100.432 0 0 1-.432-.124l-.065-.019-.043-.012c-.186-.054-.343-.125-.44-.299a.613.613 0 0 1-.046-.444.652.652 0 0 1 .157-.24l.013-.014a.578.578 0 0 1 .242-.12l.023-.007a55.748 55.748 0 0 0 .798-.223l.12-.032.055-.015c.452-.122.91-.402 1.183-.79l.012-.017c.12-.17.185-.35.243-.548a36.263 36.263 0 0 1 .274-.896l.023-.073c.082-.268.082-.268.174-.37l.013-.016c.18-.195.51-.208.723-.065Z"/></svg>