<svg width="24" height="24" viewBox="0 0 24 24" fill="none" xmlns="http://www.w3.org/2000/svg">
<path d="M20.74 21C20.57 21 20.41 20.94 20.27 20.84L16.52 17.84L17.46 16.67L19.99 18.69V3C19.99 2.6 19.83 2.22 19.55 1.94C19.27 1.66 18.89 1.5 18.49 1.5H7.98999C7.58999 1.5 7.21999 1.66 6.92999 1.94C6.64999 2.22 6.48999 2.6 6.48999 3V3.75H4.98999V3C4.98999 2.2 5.31 1.45 5.87 0.879997C6.44 0.309997 7.18999 0 7.98999 0H18.49C19.29 0 20.04 0.309997 20.61 0.879997C21.18 1.45 21.49 2.2 21.49 3V20.25C21.49 20.54 21.32 20.8 21.06 20.93C20.96 20.98 20.85 21 20.74 21Z" fill="black"/>
<path d="M16.99 24C16.82 24 16.64 23.94 16.51 23.82L9.87 18.23L3.22998 23.82C3.00998 24.01 2.69999 24.05 2.42999 23.93C2.16999 23.81 2 23.54 2 23.25V6.75C2 5.95 2.32 5.2 2.88 4.63C3.45 4.06 4.2 3.75 5 3.75H14.75C15.55 3.75 16.3 4.07 16.87 4.63C17.44 5.2 17.75 5.95 17.75 6.75V23.25C17.75 23.54 17.58 23.81 17.32 23.93C17.22 23.98 17.11 24 17 24H16.99ZM9.87 16.5C10.04 16.5 10.21 16.56 10.35 16.68L16.24 21.64V6.75C16.24 6.35 16.08 5.97 15.8 5.69C15.52 5.41 15.14 5.25 14.74 5.25H4.98999C4.58999 5.25 4.20999 5.41 3.92999 5.69C3.64999 5.97 3.48999 6.35 3.48999 6.75V21.64L9.38 16.68C9.52 16.56 9.68999 16.5 9.85999 16.5H9.87Z" fill="black"/>
</svg>
