<svg width="14" height="14" viewBox="0 0 14 14" fill="none" xmlns="http://www.w3.org/2000/svg">
<path d="M11.0834 12.8337H2.91675C1.95425 12.8337 1.16675 12.0462 1.16675 11.0837V2.91699C1.16675 1.95449 1.95425 1.16699 2.91675 1.16699H11.0834C12.0459 1.16699 12.8334 1.95449 12.8334 2.91699V11.0837C12.8334 12.0462 12.0459 12.8337 11.0834 12.8337ZM2.91675 2.33366C2.59591 2.33366 2.33341 2.59616 2.33341 2.91699V11.0837C2.33341 11.4045 2.59591 11.667 2.91675 11.667H11.0834C11.4042 11.667 11.6667 11.4045 11.6667 11.0837V2.91699C11.6667 2.59616 11.4042 2.33366 11.0834 2.33366H2.91675Z" fill="#1D2025"/>
<path d="M7.00008 12.8337C6.67925 12.8337 6.41675 12.5712 6.41675 12.2503V7.58366H1.75008C1.42925 7.58366 1.16675 7.32116 1.16675 7.00033C1.16675 6.67949 1.42925 6.41699 1.75008 6.41699H6.41675V1.75033C6.41675 1.42949 6.67925 1.16699 7.00008 1.16699C7.32091 1.16699 7.58341 1.42949 7.58341 1.75033V6.41699H12.2501C12.5709 6.41699 12.8334 6.67949 12.8334 7.00033C12.8334 7.32116 12.5709 7.58366 12.2501 7.58366H7.58341V12.2503C7.58341 12.5712 7.32091 12.8337 7.00008 12.8337Z" fill="#1D2025"/>
</svg>
