<svg width="14" height="14" viewBox="0 0 14 14" fill="none" xmlns="http://www.w3.org/2000/svg">
<path d="M10.5 13.4163H2.33333C2.0125 13.4163 1.75 13.1538 1.75 12.833C1.75 12.5122 2.0125 12.2497 2.33333 12.2497H10.5C10.6575 12.2497 10.8033 12.1913 10.9083 12.0805C11.0192 11.9697 11.0833 11.818 11.0833 11.6663V4.61386L8.21916 1.74967H3.5C3.3425 1.74967 3.19666 1.80803 3.09166 1.91886C2.98083 2.0297 2.91667 2.18134 2.91667 2.33301V6.41634C2.91667 6.73717 2.65417 6.99967 2.33333 6.99967C2.0125 6.99967 1.75 6.73717 1.75 6.41634V2.33301C1.75 1.87217 1.93667 1.41718 2.26334 1.09634C2.59 0.769677 3.0275 0.583008 3.5 0.583008H8.45833C8.61583 0.583008 8.76166 0.647197 8.87249 0.752197L12.0808 3.96053C12.1917 4.07136 12.25 4.21717 12.25 4.37467V11.6663C12.25 12.1272 12.0633 12.5822 11.7367 12.903C11.41 13.2297 10.9725 13.4163 10.5 13.4163Z" fill="#8952E0"/>
<path d="M5.83338 11.083C5.68171 11.083 5.53587 11.0247 5.4192 10.9138C5.1917 10.6863 5.1917 10.3189 5.4192 10.0914L6.75504 8.75551L5.4192 7.41966C5.1917 7.19216 5.1917 6.82471 5.4192 6.59721C5.6467 6.36971 6.0142 6.36971 6.2417 6.59721L7.9917 8.34721C8.2192 8.57471 8.2192 8.94216 7.9917 9.16966L6.2417 10.9197C6.12504 11.0363 5.97921 11.0888 5.82754 11.0888L5.83338 11.083ZM11.6667 5.24967H8.16671C7.84588 5.24967 7.58338 4.98717 7.58338 4.66634V1.16634C7.58338 0.845508 7.84588 0.583008 8.16671 0.583008C8.48755 0.583008 8.75005 0.845508 8.75005 1.16634V4.08301H11.6667C11.9875 4.08301 12.25 4.34551 12.25 4.66634C12.25 4.98717 11.9875 5.24967 11.6667 5.24967Z" fill="#8952E0"/>
<path d="M2.33333 11.083C2.0125 11.083 1.75 10.8205 1.75 10.4997V9.91634C1.75 9.45551 1.93667 9.00051 2.26334 8.67968C2.59 8.35301 3.0275 8.16634 3.5 8.16634H7C7.32083 8.16634 7.58333 8.42884 7.58333 8.74968C7.58333 9.07051 7.32083 9.33301 7 9.33301H3.5C3.3425 9.33301 3.19666 9.39136 3.09166 9.5022C2.98083 9.61303 2.91667 9.76468 2.91667 9.91634V10.4997C2.91667 10.8205 2.65417 11.083 2.33333 11.083Z" fill="#8952E0"/>
</svg>
