<svg width="14" height="14" viewBox="0 0 14 14" fill="none" xmlns="http://www.w3.org/2000/svg">
<path fill-rule="evenodd" clip-rule="evenodd" d="M9.33341 12.833C9.33341 13.1538 9.59591 13.4163 9.91675 13.4163H11.0834C11.5384 13.4163 11.9759 13.2355 12.3142 12.8972C12.6467 12.5588 12.8334 12.1213 12.8334 11.6663V4.37467C12.8334 4.21717 12.7751 4.07135 12.6642 3.96051L9.45589 0.752179C9.34506 0.647179 9.19925 0.583008 9.04175 0.583008H4.08341C3.62841 0.583008 3.19092 0.76385 2.85259 1.10218C2.52009 1.44052 2.33341 1.87801 2.33341 2.33301V4.08301C2.33341 4.40384 2.59591 4.66634 2.91675 4.66634C3.23758 4.66634 3.50008 4.40384 3.50008 4.08301V2.33301C3.50008 2.18717 3.56425 2.04717 3.68091 1.93051C3.79758 1.81384 3.93758 1.74967 4.08341 1.74967H8.16675V4.66634C8.16675 4.98717 8.42925 5.24967 8.75008 5.24967H11.6667V11.6663C11.6667 11.8122 11.6026 11.9522 11.4859 12.0688C11.3692 12.1855 11.2292 12.2497 11.0834 12.2497H9.91675C9.59591 12.2497 9.33341 12.5122 9.33341 12.833ZM9.33341 2.28052L11.1359 4.08301H9.33341V2.28052Z" fill="#8952E0"/>
<path d="M5.75174 10.6572C5.86257 10.7447 5.99091 10.7913 6.12508 10.7913C6.29425 10.7913 6.45759 10.7214 6.57426 10.5814C6.77843 10.3305 6.74342 9.96302 6.49842 9.75885L5.83341 9.20467V8.16634C5.83341 7.84551 5.57091 7.58301 5.25008 7.58301C4.92925 7.58301 4.66675 7.84551 4.66675 8.16634V9.47884C4.66675 9.65384 4.74257 9.81717 4.87674 9.928L5.75174 10.6572Z" fill="#8952E0"/>
<path fill-rule="evenodd" clip-rule="evenodd" d="M5.25008 13.4163C2.99841 13.4163 1.16675 11.5847 1.16675 9.33301C1.16675 7.08134 2.99841 5.24967 5.25008 5.24967C7.50175 5.24967 9.33341 7.08134 9.33341 9.33301C9.33341 11.5847 7.50175 13.4163 5.25008 13.4163ZM5.25008 6.41634C3.64008 6.41634 2.33341 7.72301 2.33341 9.33301C2.33341 10.943 3.64008 12.2497 5.25008 12.2497C6.86008 12.2497 8.16675 10.943 8.16675 9.33301C8.16675 7.72301 6.86008 6.41634 5.25008 6.41634Z" fill="#8952E0"/>
</svg>
