<svg width="14" height="14" viewBox="0 0 14 14" fill="none" xmlns="http://www.w3.org/2000/svg">
<path d="M2.33325 12.838C2.03575 12.838 1.73243 12.7564 1.46993 12.6105C1.2016 12.4589 0.979921 12.2372 0.822421 11.9689C0.664921 11.7005 0.583252 11.3972 0.583252 11.0939C0.583252 10.7847 0.664933 10.4814 0.8166 10.213L5.48327 2.04637C5.63493 1.77803 5.85659 1.55637 6.12492 1.39887C6.65575 1.0897 7.34993 1.0897 7.8866 1.39887C8.15493 1.55637 8.37075 1.77803 8.52825 2.04637L13.1949 10.213C13.3466 10.4814 13.4283 10.7789 13.4283 11.088C13.4283 11.3972 13.3466 11.6947 13.1949 11.963C13.0432 12.2314 12.8216 12.4472 12.5533 12.6047C12.2849 12.7564 11.9874 12.838 11.6783 12.838H2.32743H2.33325ZM7.00576 2.3322C6.90076 2.3322 6.80159 2.36137 6.71409 2.41387C6.62659 2.46637 6.55076 2.5422 6.49826 2.6297L1.83159 10.7964C1.77909 10.8897 1.74992 10.9889 1.74992 11.0939C1.74992 11.1989 1.77909 11.298 1.83159 11.3855C1.88409 11.473 1.95409 11.5489 2.04742 11.5955C2.13492 11.648 2.23409 11.6655 2.33909 11.6714H11.6783C11.7774 11.6714 11.8824 11.6422 11.9699 11.5955C12.0574 11.543 12.1333 11.473 12.1858 11.3797C12.2383 11.2922 12.2616 11.193 12.2616 11.088C12.2616 10.983 12.2324 10.8839 12.1858 10.7964L7.51909 2.6297C7.46659 2.53637 7.39076 2.46053 7.30326 2.41387C7.21576 2.3672 7.11076 2.3322 7.0116 2.3322H7.00576ZM7.01742 10.5047C6.69658 10.5047 6.43408 10.2422 6.43408 9.92137C6.43408 9.60053 6.69075 9.33803 7.01742 9.33803C7.33825 9.33803 7.60075 9.60053 7.60075 9.92137C7.60075 10.2422 7.33825 10.5047 7.01742 10.5047ZM7.01742 8.17137C6.69658 8.17137 6.43408 7.90887 6.43408 7.58803V5.2547C6.43408 4.93387 6.69658 4.67137 7.01742 4.67137C7.33825 4.67137 7.60075 4.93387 7.60075 5.2547V7.58803C7.60075 7.90887 7.33825 8.17137 7.01742 8.17137Z" fill="#8952E0"/>
</svg>
