<svg width="14" height="14" viewBox="0 0 14 14" fill="none" xmlns="http://www.w3.org/2000/svg">
<path d="M10.5 13.4163H3.5C3.0275 13.4163 2.59 13.2297 2.2575 12.8972C1.93666 12.5822 1.75 12.1272 1.75 11.6663V2.33301C1.75 1.87217 1.93667 1.41718 2.26334 1.09634C2.59 0.769677 3.0275 0.583008 3.5 0.583008H8.45833C8.61583 0.583008 8.76164 0.647197 8.87248 0.752197L12.0808 3.96053C12.1916 4.07136 12.25 4.21717 12.25 4.37467V11.6663C12.25 12.1272 12.0633 12.5822 11.7367 12.903C11.41 13.2297 10.9725 13.4163 10.5 13.4163ZM3.5 1.74967C3.3425 1.74967 3.19666 1.80803 3.09166 1.91886C2.98083 2.0297 2.91667 2.18134 2.91667 2.33301V11.6663C2.91667 11.818 2.98082 11.9696 3.08582 12.0746C3.20249 12.1913 3.34833 12.2497 3.5 12.2497H10.5C10.6575 12.2497 10.8033 12.1913 10.9083 12.0805C11.0192 11.9697 11.0833 11.818 11.0833 11.6663V4.61386L8.21915 1.74967H3.5Z" fill="#8952E0"/>
<path d="M7 11.083C6.67917 11.083 6.41667 10.8205 6.41667 10.4997V9.33301H5.25C4.92917 9.33301 4.66667 9.07051 4.66667 8.74968C4.66667 8.42884 4.92917 8.16634 5.25 8.16634H6.41667V6.99967C6.41667 6.67884 6.67917 6.41634 7 6.41634C7.32083 6.41634 7.58333 6.67884 7.58333 6.99967V8.16634H8.75C9.07083 8.16634 9.33333 8.42884 9.33333 8.74968C9.33333 9.07051 9.07083 9.33301 8.75 9.33301H7.58333V10.4997C7.58333 10.8205 7.32083 11.083 7 11.083ZM11.6667 5.24967H8.16667C7.84583 5.24967 7.58333 4.98717 7.58333 4.66634V1.16634C7.58333 0.845508 7.84583 0.583008 8.16667 0.583008C8.4875 0.583008 8.75 0.845508 8.75 1.16634V4.08301H11.6667C11.9875 4.08301 12.25 4.34551 12.25 4.66634C12.25 4.98717 11.9875 5.24967 11.6667 5.24967Z" fill="#8952E0"/>
</svg>
